<svg id="Layer_1" data-name="Layer 1" xmlns="http://www.w3.org/2000/svg" viewBox="0 0 500 68"><defs><style>.cls-1{fill:#fff;}</style></defs><polygon class="cls-1" points="0 68 68 68 68 15.11 15.11 15.11 15.11 37.78 45.33 37.78 45.33 45.33 15.11 45.33 15.11 52.89 52.89 52.89 52.89 30.22 22.67 30.22 22.67 22.67 60.44 22.67 60.44 60.44 60.44 60.44 7.56 60.44 7.56 60.44 7.56 7.56 68 7.56 68 0 0 0 0 68"/><path class="cls-1" d="M117.05,36.84h7.7v5.63a12.27,12.27,0,0,1-7.27,2.28c-6.15,0-10.23-4.56-10.23-10.75v-.09c0-5.76,4.21-10.62,9.76-10.62a11.8,11.8,0,0,1,8.43,3.23l3.35-4a16.28,16.28,0,0,0-11.57-4.09A15.34,15.34,0,0,0,101.7,34v.09c0,8.77,6.19,15.48,15.61,15.48a19.2,19.2,0,0,0,12.56-4.69V32.24H117.05Z"/><path class="cls-1" d="M153.43,18.74,140.19,49.05h5.41l3.1-7.27h14.23l3,7.27h5.59L158.33,18.74Zm-2.8,18.36,5.16-12,5.21,12Z"/><polygon class="cls-1" points="197.63 33.18 188.47 18.95 182.84 18.95 182.84 49.05 188.04 49.05 188.04 27.55 197.46 41.65 197.63 41.65 207.14 27.46 207.14 49.05 212.43 49.05 212.43 18.95 206.79 18.95 197.63 33.18"/><polygon class="cls-1" points="231.47 36.24 246.57 36.24 246.57 31.51 231.47 31.51 231.47 23.68 248.5 23.68 248.5 18.95 226.19 18.95 226.19 49.05 248.72 49.05 248.72 44.32 231.47 44.32 231.47 36.24"/><path class="cls-1" d="M285.61,28.54v-.09A9.09,9.09,0,0,0,283.12,22c-1.94-1.89-4.91-3-8.69-3H261v30.1h5.28V38.56h6.63l7.39,10.49h6.28l-8.13-11.39C282.64,36.45,285.61,33.48,285.61,28.54ZM266.3,33.87V23.77H274c3.91,0,6.24,1.76,6.24,5v.09c0,3.05-2.41,5-6.2,5Z"/><path class="cls-1" d="M328.65,31.59c-5.8-1.37-7.18-2.41-7.18-4.73v-.08c0-2,1.81-3.57,4.9-3.57a13.63,13.63,0,0,1,8.17,3.09l2.84-4a16.67,16.67,0,0,0-10.92-3.78c-6,0-10.28,3.57-10.28,8.73v.09c0,5.54,3.62,7.43,10,9,5.59,1.29,6.8,2.45,6.8,4.6V41c0,2.23-2.07,3.78-5.34,3.78-3.69,0-6.62-1.42-9.5-3.91L315,44.66a18.5,18.5,0,0,0,12.55,4.82c6.33,0,10.75-3.35,10.75-9v-.08C338.28,35.42,335,33.14,328.65,31.59Z"/><polygon class="cls-1" points="355.83 36.24 370.92 36.24 370.92 31.51 355.83 31.51 355.83 23.68 372.86 23.68 372.86 18.95 350.54 18.95 350.54 49.05 373.07 49.05 373.07 44.32 355.83 44.32 355.83 36.24"/><polygon class="cls-1" points="406.48 39.76 390.36 18.95 385.46 18.95 385.46 49.05 390.66 49.05 390.66 27.64 407.26 49.05 411.69 49.05 411.69 18.95 406.48 18.95 406.48 39.76"/><path class="cls-1" d="M437.06,31.59c-5.81-1.37-7.19-2.41-7.19-4.73v-.08c0-2,1.81-3.57,4.91-3.57A13.67,13.67,0,0,1,443,26.3l2.83-4a16.67,16.67,0,0,0-10.92-3.78c-6,0-10.27,3.57-10.27,8.73v.09c0,5.54,3.61,7.43,10,9,5.59,1.29,6.8,2.45,6.8,4.6V41c0,2.23-2.07,3.78-5.33,3.78-3.7,0-6.63-1.42-9.51-3.91l-3.18,3.78a18.53,18.53,0,0,0,12.56,4.82c6.32,0,10.75-3.35,10.75-9v-.08C446.69,35.42,443.42,33.14,437.06,31.59Z"/><polygon class="cls-1" points="464.23 36.24 479.32 36.24 479.32 31.51 464.23 31.51 464.23 23.68 481.26 23.68 481.26 18.95 458.94 18.95 458.94 49.05 481.47 49.05 481.47 44.32 464.23 44.32 464.23 36.24"/><rect class="cls-1" x="494.12" y="18.95" width="5.29" height="30.1"/></svg>