<?xml version="1.0" encoding="UTF-8"?><svg id="Layer_2" xmlns="http://www.w3.org/2000/svg" viewBox="0 0 690.39 160.15"><defs><style>.cls-1{fill:#fff;}</style></defs><g id="Layer_1-2"><g><g><path class="cls-1" d="M310.39,61.01c0,40.11-35,40.11-35,40.11l35,35h-35l-35-35h-40v35h-25V21.12h95s40,0,40,39.89Zm-40-14.89h-70v30h70c10,0,15-5,15-14.83s-5-15.17-15-15.17Z"/><path class="cls-1" d="M325.39,21.12h25v115h-25V21.12Z"/><path class="cls-1" d="M479.92,91.12h-59.53v-20h80v65h-85s-50,0-50-60c0-55,50-55,50-55h80v25h-80s-25,0-25,30c0,35,25,35,25,35h64.64l-.11-20Z"/><path class="cls-1" d="M515.39,21.12h25v115h-25V21.12Z"/><path class="cls-1" d="M580.39,56.12v80h-25V21.12h25l85,80V21.12h25v115h-25l-85-80Z"/></g><g><path class="cls-1" d="M32.83,104.85c-6.54-12.45-8.21-27.43-3.4-41.83,8.62-25.83,35.04-40.7,61.07-35.55-21.89-7.96-42.98-10.19-66.25-1.08-5.51,2.16-6.7,2.95-11.86,11.17-3.84,6.12-5.79,9.61-8.26,17.01C-3.16,76.46-.49,99.27,9.68,118.08h0c9.34,17.29,25.01,31.21,45.12,37.93,25.8,8.61,52.87,3.36,73.18-11.69-35.47,10.72-74.26-3.01-92.71-35.31-.87-1.35-1.68-2.74-2.43-4.16"/><path class="cls-1" d="M151.23,42.86h0c-9.29-17.66-25.12-31.9-45.54-38.72C78.86-4.81,50.66,1.22,30.12,17.68c35.05-11.94,73.98,.43,93.62,31.29,0,0,2.9,4.46,4.34,7.15,6.13,12.26,7.59,26.86,2.91,40.88-9.2,27.56-38.66,42.64-66.29,34.24,22.65,9.96,52.2,14.59,75.81,1.11,1.02-.58,2.49-2.15,4.89-5.59,5.21-7.47,8.08-12.92,10.88-21.31,7.17-21.48,4.72-43.85-4.99-62.46h0s-.02-.04-.04-.07c-.01-.02-.02-.04-.03-.06Z"/><path class="cls-1" d="M68.77,86.57c3.63,6.87,12.15,9.5,19.02,5.86,6.87-3.63,9.5-12.15,5.86-19.02-3.63-6.87-12.15-9.49-19.02-5.86-6.87,3.63-9.49,12.15-5.86,19.02Z"/></g></g></g></svg>