<svg fill="none" height="91" viewBox="0 0 91 91" width="91" xmlns="http://www.w3.org/2000/svg"><path clip-rule="evenodd" d="m75.7359 21.5026c3.2552.8767 5.8221 3.443 6.6982 6.6988 1.6282 5.9467 1.5656 18.3424 1.5656 18.3424s0 12.3324-1.565 18.2797c-.8767 3.2552-3.443 5.8221-6.6988 6.6982-5.9473 1.5656-29.7361 1.5656-29.7361 1.5656s-23.7267 0-29.736-1.6276c-3.2558-.8767-5.8221-3.4436-6.69883-6.6988-1.56497-5.8847-1.56497-18.2798-1.56497-18.2798s0-12.333 1.56497-18.2797c.87613-3.2552 3.50563-5.8847 6.69823-6.7609 5.9473-1.5655 29.7361-1.5655 29.7361-1.5655s23.7893 0 29.7366 1.6276zm-17.5287 24.9786-19.7822 11.3938v-22.7875z" fill="#fff" fill-rule="evenodd"/></svg>